<?xml version="1.0" encoding="UTF-8"?>
<svg width="85px" height="150px" viewBox="0 0 85 150" version="1.1" xmlns="http://www.w3.org/2000/svg" xmlns:xlink="http://www.w3.org/1999/xlink">
    <!-- Generator: Sketch 59 (86127) - https://sketch.com -->
    <title>fb large</title>
    <desc>Created with Sketch.</desc>
    <g id="fb-large" stroke="none" stroke-width="1" fill="none" fill-rule="evenodd">
        <path d="M27.1314617,144.04294 L53.4791198,144.04294 L53.4791198,81.3285377 L75.4878519,81.3285377 L79.4264511,55.6524172 L53.4791198,55.6524172 C53.4791198,46.7057764 53.4791198,41.0767051 53.4791198,38.7652031 C53.4791198,35.2979502 53.7453292,32.9091099 56.1485616,30.693898 C58.5517939,28.4786861 61.8605952,28.4786861 66.6671023,28.2518478 C69.0617339,28.1388355 73.3148502,28.1388355 79.4264511,28.2518478 L79.4264511,6.04398406 C62.7786459,3.68277894 51.1282425,4.4041513 44.4752407,8.20810114 C34.4957379,13.9140259 30.4776398,19.9461172 28.8649422,26.7681021 C27.7237829,31.5953995 27.1459561,41.2235045 27.1314617,55.6524172 L4.85635827,55.6524172 L4.85635827,81.3285377 L27.1314617,81.3285377 L27.1314617,144.04294 Z" id="Path-2" stroke="#858585" stroke-width="13.716783"></path>
    </g>
</svg>