<svg width="27" height="30" xmlns="http://www.w3.org/2000/svg"><path d="M21.929 27.762h1.953l-4.108-5.144 3.342-4.718-1.166-.837-3.503 4.525-1.204-1.251c-6.052-6.288-9.259-9.927-9.934-11.36-1.386-2.945.308-6.401 3.847-6.401 2.007 0 3.673 1.251 5.054 3.57l1.279-.874c-1.254-2.786-3.17-4.076-5.902-4.076-4.236 0-6.649 2.264-6.649 5.117 0 1.76.727 3.578 2.237 5.474l.933 1.171-1.17.935c-3.842 3.07-5.227 6.224-4.385 9.638.706 2.86 3.82 4.969 7.753 4.969 2.483 0 4.78-1.064 6.949-3.267l1.059-1.075 3.615 3.604zM9.373 14.336l8.196 8.833-1.115 1.02c-1.239 1.133-2.25 1.867-3.11 2.216-2.817 1.144-6.023.686-7.764-1.18-1.859-1.99-2.085-5.08-.4-7.66.523-.798 1.55-1.619 3.146-2.591l1.047-.638z" stroke="#858585" stroke-width="3" fill="none" fill-rule="evenodd"/></svg>