<?xml version="1.0" encoding="UTF-8"?>
<svg width="135px" height="150px" viewBox="0 0 135 150" version="1.1" xmlns="http://www.w3.org/2000/svg" xmlns:xlink="http://www.w3.org/1999/xlink">
    <!-- Generator: Sketch 59 (86127) - https://sketch.com -->
    <title>partner large</title>
    <desc>Created with Sketch.</desc>
    <g id="partner-large" stroke="none" stroke-width="1" fill="none" fill-rule="evenodd">
        <path d="M109.644099,138.80942 L119.411259,138.80942 L98.8687335,113.089184 L115.578353,89.5002693 L109.75131,85.3132324 L92.2333877,107.937695 L86.2138649,101.683499 C55.9528567,70.2427538 39.9209684,52.0493708 36.5453499,44.8805174 C29.614302,30.1609432 38.0851362,12.8777788 55.7819072,12.8777788 C65.814513,12.8777788 74.1440666,19.1368957 81.0481628,30.7311549 L87.4447569,26.3577777 C81.1754714,12.4309393 71.5934314,5.98090905 57.9356594,5.98090905 C36.7531799,5.98090905 24.6909434,17.2980247 24.6909434,31.5646364 C24.6909434,40.3686646 28.3252098,49.4543305 35.8748308,58.934789 L40.5389589,64.7917814 L34.68993,69.4658922 C15.4815606,84.8157985 8.5565857,100.585977 12.7667202,117.656822 C16.2926602,131.953461 31.8670832,142.5 51.5280715,142.5 C63.94493,142.5 75.4282735,137.18074 86.2737235,126.167494 L91.5682812,120.791021 L109.644099,138.80942 Z M46.864209,71.6802259 L87.8454067,115.845519 L82.2698241,120.94374 C76.0753941,126.607825 71.0206093,130.278775 66.7180896,132.025444 C52.6352647,137.742568 36.6054075,135.455609 27.8975504,126.128156 C18.6061327,116.17562 17.4749804,100.721935 25.903906,87.8274226 C28.5132401,83.8356811 33.6547417,79.7323605 41.6312787,74.8700789 L46.864209,71.6802259 Z" id="Combined-Shape" stroke="#858585" stroke-width="15"></path>
    </g>
</svg>