<svg width="135" height="150" xmlns="http://www.w3.org/2000/svg"><path d="M109.644 138.81h9.767L98.87 113.09l16.71-23.59-5.828-4.187-17.518 22.625-6.02-6.255c-30.26-31.44-46.292-49.634-49.668-56.802-6.93-14.72 1.54-32.003 19.237-32.003 10.033 0 18.362 6.259 25.266 17.853l6.397-4.373C81.175 12.43 71.593 5.98 57.935 5.98c-21.182 0-33.244 11.317-33.244 25.584 0 8.804 3.634 17.89 11.184 27.37l4.664 5.857-5.85 4.674c-19.207 15.35-26.132 31.12-21.922 48.19 3.526 14.297 19.1 24.844 38.761 24.844 12.417 0 23.9-5.32 34.746-16.333l5.294-5.376 18.076 18.018zm-62.78-67.13l40.981 44.166-5.575 5.098c-6.195 5.664-11.25 9.335-15.552 11.081-14.083 5.718-30.113 3.43-38.82-5.897-9.292-9.952-10.423-25.406-1.994-38.3 2.61-3.992 7.75-8.096 15.727-12.958l5.233-3.19z" stroke="#858585" stroke-width="15" fill="none" fill-rule="evenodd"/></svg>